<?xml version="1.0" encoding="UTF-8"?>
<svg id="_圖層_2" data-name="圖層_2" xmlns="http://www.w3.org/2000/svg" viewBox="0 0 167.71 56.57">
  <defs>
    
  </defs>
  <g id="_圖層_4" data-name="圖層_4">
    <g>
      <path class="cls-1" d="M28.82,0c-7.34,0-13.31,5.97-13.31,13.31s5.97,13.32,13.31,13.32,13.32-5.97,13.32-13.32S36.16,0,28.82,0"></path>
      <g>
        <path class="cls-3" d="M167.71,36.52c0,12.93-51.17,20.05-83.86,20.05C47.74,56.57,0,49.45,0,36.52s48.72-20.05,83.84-20.05,83.86,6.78,83.86,20.05"></path>
        <polygon class="cls-2" points="37.87 27.67 33.66 27.67 29.19 40.92 26.27 27.67 21.75 27.67 17.81 48.01 22.16 48.01 24.44 35.58 26.87 45.27 26.84 45.37 26.9 45.37 27.56 48.01 30.3 48.01 34.28 36.27 35 48.01 39.01 48.01 37.87 27.67"></polygon>
        <polygon class="cls-2" points="43.69 27.67 40.1 48.04 44.01 48.04 47.59 27.67 43.69 27.67"></polygon>
        <path class="cls-2" d="M61.17,27.67l-4.21,5.88-.19.27c-.21.3-.56.79-.94,1.35-.12-.36-.27-.77-.46-1.31l-2.24-6.2h-4.43l4.37,11.69-1.53,8.68h3.91l1.47-8.39,8.91-11.98h-4.66Z"></path>
        <path class="cls-2" d="M71.82,27.67h-3.52l-10.02,20.37h4.19l2.68-5.64h4.97l.79,5.64h4.16l-3.24-20.37ZM66.95,38.6l1.99-4.11c.02-.05.04-.1.07-.14,0,.06.02.11.03.17l.55,4.08h-2.64Z"></path>
        <path class="cls-2" d="M92.03,33.82c.43-2.5-.37-4.68-2.08-5.56-1.11-.55-2.27-.59-3.36-.59h-7.52l-3.59,20.37h3.9l1.44-8.18h1.54c1.22,0,1.63,0,2.92,3.73l1.52,4.45h4.5l-2.21-6.27c-.42-1.22-.87-2.04-1.33-2.63,2.31-.87,3.8-2.71,4.26-5.32M82.29,31.56h4.03c.7,0,1.11.1,1.45.36.27.2.5.78.36,1.58-.15.85-.7,1.7-1.26,1.98-.72.33-1.25.33-2.11.33h-3.22l.75-4.25Z"></path>
        <polygon class="cls-2" points="96.54 27.67 92.94 48.04 96.84 48.04 100.43 27.67 96.54 27.67"></polygon>
        <path class="cls-2" d="M113.69,29.17c-1.02-1.17-2.59-1.79-4.56-1.79-3.66,0-6.53,2.36-7.14,5.87-.8,4.53,2.93,5.64,4.71,6.16,3.19.98,3.56,1.26,3.35,2.49-.31,1.76-1.98,2.39-3.44,2.39-.55,0-2.37-.12-2.76-1.69-.1-.4-.12-.92-.05-1.55l.12-1.15-3.82.43-.1.84c-.07.5-.17,1.35,0,2.42.54,3.15,2.66,4.74,6.32,4.74s6.86-2.59,7.52-6.29c.85-4.88-3.05-5.99-5.63-6.74-2.66-.75-2.6-1.13-2.46-1.89.32-1.8,2.27-2,3.1-2s1.45.18,1.78.55c.45.5.42,1.36.37,1.97l-.11,1.11,3.8-.34.11-.72c.29-1.98-.09-3.65-1.1-4.81"></path>
        <path class="cls-2" d="M126.48,27.67h-3.53l-10.02,20.37h4.19l2.67-5.64h4.97l.8,5.64h4.16l-3.24-20.37ZM121.59,38.6l2-4.11s.04-.1.07-.14c0,.05.02.11.03.17l.54,4.08h-2.64Z"></path>
        <polygon class="cls-2" points="144.28 27.67 142.27 39.1 137.69 27.67 134.21 27.67 131.07 48.04 134.63 48.04 136.66 35.6 142.15 48.04 145.26 48.04 148.03 27.67 144.28 27.67"></polygon>
        <path class="cls-3" d="M28.82,0c-7.34,0-13.31,5.97-13.31,13.31s5.97,13.32,13.31,13.32,13.32-5.97,13.32-13.32S36.16,0,28.82,0M28.82,25.92c-6.95,0-12.6-5.66-12.6-12.61,0-6.55,5.06-11.9,11.46-12.48v1.91c-5.36.57-9.55,5.08-9.55,10.57,0,5.18,3.89,9.95,9.34,10.44v-.71c-5.05-.49-8.63-4.97-8.63-9.73,0-5.49,4.48-9.99,9.99-9.99s9.74,4.49,9.74,9.99-4.04,9.15-8.83,9.79v.7c5.32-.64,9.53-4.88,9.53-10.4s-4.28-10.48-9.94-10.75V.76c6.71.28,12.1,5.77,12.1,12.55s-5.65,12.61-12.6,12.61"></path>
        <path class="cls-3" d="M29.43,14.19v-2.2c.8.01,7.44.06,7.44.06l-.1-.45s-1.4-6.43-7.95-6.43-7.95,6.43-7.97,6.51l-.09.42s6.34-.04,6.97-.04v2.09c-.63,0-7,.04-7,.04l.06.42c0,.06,1.17,6.82,8.03,6.82s8.02-6.75,8.03-6.81l.05-.4s-6.66,0-7.47-.03M21.66,11.29c.28-1.05,1.79-5.41,7.16-5.41s6.81,4.32,7.12,5.43c-.85,0-13.35-.02-14.28-.02M28.82,20.73c-5.4,0-6.84-4.44-7.16-5.8.77-.01,13.61,0,14.39,0-.32,1.37-1.79,5.79-7.23,5.79"></path>
        <path class="cls-3" d="M140.71,12.28c.64,0,1.24.16,1.78.48.55.32.98.76,1.29,1.31.31.55.47,1.14.47,1.77s-.16,1.22-.48,1.76c-.32.54-.75.98-1.31,1.29-.55.32-1.14.48-1.77.48s-1.21-.16-1.76-.48c-.55-.32-.98-.76-1.3-1.3-.32-.55-.47-1.14-.47-1.77s.16-1.22.48-1.76c.32-.55.76-.98,1.31-1.3.55-.32,1.14-.48,1.76-.48M140.73,18.89c.82,0,1.53-.29,2.14-.89.6-.59.9-1.32.9-2.18,0-.53-.14-1.03-.41-1.51-.27-.48-.64-.85-1.11-1.13-.47-.28-.97-.42-1.52-.42-.84,0-1.56.3-2.16.89-.61.59-.91,1.32-.91,2.17,0,.54.13,1.04.41,1.52.27.47.65.85,1.12,1.12.47.28.98.42,1.54.42M139.24,13.76h1.7c.51,0,.88.08,1.11.26.23.17.35.47.35.89s-.18.71-.51.89c.16.07.28.17.35.29.07.11.11.32.11.64v.46c0,.19.05.37.15.53l.07.11h-.72c-.04-.16-.07-.35-.09-.6l-.04-.5c-.01-.25-.06-.41-.15-.49-.09-.07-.3-.11-.64-.11h-1.03v1.7h-.65v-4.07ZM139.88,14.34v1.21h1c.3,0,.51-.05.65-.13.13-.09.21-.25.21-.47s-.07-.38-.19-.47c-.12-.08-.33-.13-.63-.13h-1.04Z"></path>
      </g>
    </g>
  </g>
</svg>