<?xml version="1.0" encoding="UTF-8"?>
<svg id="_圖層_2" data-name="圖層_2" xmlns="http://www.w3.org/2000/svg" viewBox="0 0 403.32 109.45">
  <defs>
    
  </defs>
  <g id="_圖層_4" data-name="圖層_4">
    <g>
      <path class="cls-1" d="M16.89,82.47l-10.88-8.48c-2.37-1.76-3.79-3.53-4.28-5.29-.57-1.83-.33-3.89.73-6.17,3.1-6.17,6.24-17.4,9.42-33.69h-5.02c-2.04,0-3.59-.59-4.65-1.77-1.14-1.1-1.71-2.42-1.71-3.96.08-1.83.65-3.23,1.71-4.19,1.14-.95,2.69-1.43,4.65-1.43h6.61c.49-4.26.77-8.07.86-11.45,0-2.13.73-3.64,2.2-4.52,1.22-.8,2.94-1.06,5.14-.77,2.12.37,3.55,1.25,4.28,2.64.73,1.62.61,6.31-.37,14.1h10.16c3.1.07,5.67,1.03,7.71,2.86,1.79,1.91,2.65,4.55,2.57,7.93-.25,4.55-.61,8.85-1.1,12.88-1.79,13.87-5.87,26.76-12.23,38.65l13.46,10.35c1.63,1.25,2.49,2.68,2.57,4.3.24,1.32-.25,2.68-1.47,4.07-1.3,1.1-2.73,1.77-4.28,1.98-1.8.07-3.47-.55-5.01-1.87l-11.5-8.81c-.73,1.1-1.51,2.2-2.32,3.3-8,9.76-13.83,14.53-17.5,14.31-1.88-.22-3.43-.99-4.65-2.31-1.39-1.47-2.04-3.01-1.96-4.62.25-1.69,1.14-3.12,2.69-4.29,6.03-4.7,10.77-9.28,14.19-13.77M30.84,28.85h-7.22c-2.86,14.68-5.75,25.47-8.69,32.37-.41,1.54-.57,2.75-.49,3.63.25.88,1.14,1.87,2.69,2.97l6.12,4.73c3.59-7.93,6.12-15.01,7.59-21.25,2.94-12.85,3.67-20.15,2.2-21.91-.65-.44-1.39-.62-2.2-.55M57.51,14.42c.32-1.91,1.14-3.34,2.45-4.3,1.22-.81,2.73-1.17,4.53-1.1,1.71.37,3.1,1.03,4.16,1.98,1.06,1.4,1.43,3.01,1.1,4.85-4.41,19.53-8.57,34.57-12.48,45.15-.74,1.76-1.88,3.01-3.43,3.74-1.39.66-2.98.77-4.77.33-1.55-.66-2.73-1.58-3.55-2.75-.65-1.47-.69-3.12-.12-4.96,4.41-11.23,8.44-25.55,12.11-42.94M98.74,34.35c-3.75-9.25-6.28-15.23-7.59-17.95-.9-1.77-1.06-3.34-.49-4.73.41-1.39,1.47-2.46,3.18-3.2,1.55-.59,3.1-.66,4.65-.22,1.72.66,2.98,1.8,3.79,3.42,7.83,17.62,13.83,33.62,17.98,48,.41,1.84.2,3.42-.61,4.74-.73,1.25-2,2.13-3.79,2.64-1.71.29-3.3.11-4.77-.55-1.47-.88-2.44-2.13-2.94-3.74-.16.81-1.1,4.44-2.81,10.9-4.57,12.55-11.99,21.36-22.27,26.43-7.18,3.67-15.46,6.09-24.84,7.26-2.37.81-4.45.84-6.24.11-1.55-.73-2.74-1.91-3.55-3.52-1.31-4.04.28-6.83,4.77-8.37,17.62-2.06,29.77-7.86,36.46-17.4,6.03-9.76,9.05-24.37,9.05-43.83M74.03,6.39c0-1.91.61-3.45,1.83-4.63,1.14-1.02,2.61-1.57,4.41-1.65,1.79.08,3.3.59,4.53,1.54,1.22,1.17,1.83,2.75,1.83,4.73v60.23c0,4.85-2.2,8.7-6.61,11.56-2.61,1.39-7.46,1.95-14.56,1.65-6.85-.51-11.01-1.98-12.48-4.4-.65-1.32-.82-2.75-.49-4.29.57-1.62,1.59-2.75,3.06-3.42,1.47-.73,3.22-.84,5.26-.33,4.24.81,7.34,1.18,9.3,1.1.98,0,1.84-.33,2.57-.99.98-.89,1.43-2.13,1.35-3.75V6.39Z"></path>
      <path class="cls-1" d="M167.37,56.49v46.8c0,1.83-.65,3.34-1.96,4.52-1.14,1.02-2.61,1.57-4.4,1.65-1.8-.08-3.3-.59-4.53-1.54-1.14-1.25-1.71-2.79-1.71-4.62v-44.59c-.9,1.17-1.63,2.31-2.2,3.41-9.46,14.24-16.03,21.47-19.7,21.69-1.63.22-3.22-.22-4.77-1.32-1.39-1.1-2.2-2.42-2.45-3.96-.08-1.61.61-3.19,2.08-4.73,10.36-10.64,18.35-21.36,23.98-32.15h-19.58c-2.04-.08-3.59-.58-4.65-1.54-1.14-1.03-1.71-2.42-1.71-4.18.08-1.54.65-2.86,1.71-3.96,1.14-1.1,2.69-1.65,4.65-1.65h22.63v-13.32c-7.91.59-14.6.99-20.06,1.21-2.04,0-3.59-.47-4.65-1.43-1.14-1.1-1.75-2.46-1.83-4.08,0-1.61.53-2.97,1.59-4.07,1.22-1.1,2.73-1.69,4.53-1.77,22.76-1.1,39.07-2.79,48.94-5.06,2.04-.44,3.71-.33,5.02.33,1.3.74,2.2,1.91,2.69,3.53.49,1.62.37,3.08-.37,4.41-.49,1.25-1.83,2.13-4.04,2.64-4.89,1.32-11.3,2.35-19.21,3.08v14.54h21.53c1.96,0,3.46.48,4.53,1.43,1.14,1.03,1.71,2.42,1.71,4.18-.08,1.54-.65,2.86-1.71,3.96-1.23,1.18-2.74,1.77-4.53,1.77h-20.68c9.3,9.69,17.05,18.09,23.25,25.21,1.06,1.32,1.47,2.9,1.22,4.73-.24,1.47-1.14,2.68-2.69,3.63-1.63.81-3.22,1.1-4.77.89-1.63-.22-3.1-1.25-4.4-3.09-3.75-4.99-8.24-10.49-13.46-16.51M225.73,6.82c0-1.9.61-3.45,1.83-4.62,1.14-1.03,2.61-1.58,4.41-1.65,1.79.07,3.3.59,4.52,1.54,1.22,1.18,1.84,2.75,1.84,4.73v86.22c0,4.84-2.2,8.7-6.61,11.56-3.91,2.27-10.16,2.86-18.72,1.76-8.4-.88-13.33-2.57-14.8-5.06-.57-1.32-.69-2.75-.37-4.29,1.22-3.3,4.57-4.41,10.03-3.3,8.97,1.91,14.48,1.98,16.52.22.98-.88,1.43-2.13,1.35-3.75V6.82ZM212.4,11.23v67.83c0,1.84-.65,3.34-1.96,4.51-1.15,1.03-2.61,1.58-4.41,1.65-1.8-.07-3.3-.59-4.53-1.54-1.14-1.25-1.71-2.79-1.71-4.63V11.23c0-1.83.53-3.23,1.59-4.18,1.14-1.02,2.69-1.54,4.65-1.54,1.71.07,3.18.59,4.41,1.54,1.3,1.03,1.96,2.42,1.96,4.18"></path>
      <path class="cls-1" d="M325.69,49.99c-2.28,3.89-4.16,6.09-5.63,6.6-1.47.37-2.98.22-4.53-.44-.98-.51-1.71-1.03-2.2-1.54,0,.22.04.48.12.77v41.62c0,4.03-1.96,7.08-5.87,9.14-1.39.66-3.23,1.1-5.51,1.32-8.65.44-13.95-.55-15.9-2.97-.82-1.32-1.1-2.75-.86-4.3.98-3.52,3.67-4.96,8.07-4.29,3.26.81,5.26.99,6,.55,1.3-.88,1.96-2.53,1.96-4.96v-3.2h-31.93v14.1c0,1.84-.53,3.23-1.59,4.18-1.22,1.1-2.73,1.65-4.53,1.65s-3.22-.48-4.28-1.43c-1.14-1.1-1.71-2.57-1.71-4.41v-47.12c0-2.5,1.02-4.66,3.06-6.5,2.12-1.98,4.57-2.93,7.34-2.86h35.23c2.85,0,5.26.92,7.22,2.75.74.66,1.39,1.47,1.96,2.42.16-.74,1.63-4.08,4.41-10.02-.82.21-1.59.33-2.33.33h-57.26c-1.71,0-3.1-.48-4.16-1.43-.98-.89-1.47-2.09-1.47-3.64,0-1.39.49-2.57,1.47-3.52,1.06-.95,2.45-1.43,4.16-1.43h10.16v-10.68h-8.69c-1.72,0-3.1-.47-4.16-1.43-.98-.88-1.47-2.09-1.47-3.63,0-1.39.49-2.57,1.47-3.52,1.06-.95,2.45-1.43,4.16-1.43h8.69v-4.73c0-1.76.53-3.12,1.59-4.08,1.14-.95,2.61-1.43,4.41-1.43,1.63,0,3.06.48,4.28,1.43,1.22,1.1,1.83,2.47,1.83,4.08v4.73h13.34v-5.17c0-1.77.53-3.12,1.59-4.08,1.14-.95,2.61-1.43,4.4-1.43,1.63,0,3.06.48,4.28,1.43,1.22,1.1,1.84,2.46,1.84,4.08v5.17h9.05c1.63,0,2.98.44,4.04,1.32.98.88,1.47,2.09,1.47,3.63,0,1.4-.49,2.57-1.47,3.53-1.14,1.03-2.49,1.54-4.04,1.54h-9.05v10.68h9.54c1.63,0,2.98.44,4.04,1.32.33.3.61.7.86,1.21,2.69-9.69,3.91-18.76,3.67-27.2,0-1.91.61-3.34,1.83-4.3,1.06-1.02,2.48-1.57,4.28-1.65,1.63.07,3.06.59,4.28,1.54,1.22,1.39,1.71,4.63,1.47,9.69h30.46c1.88,0,3.34.48,4.41,1.43,1.06,1.03,1.59,2.35,1.59,3.96,0,1.47-.54,2.75-1.59,3.85-1.15,1.1-2.61,1.65-4.41,1.65h-5.38v2.42c-.41,18.72-4.16,35.67-11.25,50.87.41.51.77,1.03,1.1,1.54,4.32,5.88,10.68,12.37,19.09,19.49,1.63,1.47,2.49,3.01,2.57,4.62-.08,1.54-.73,2.9-1.96,4.08-1.55,1.25-3.1,1.83-4.65,1.76-1.88.07-3.59-.59-5.14-1.98-4-3.3-8.97-8.63-14.93-15.96-.9-.96-1.63-1.87-2.2-2.75-3.83,5.51-7.95,10.28-12.35,14.31-5.22,4.11-9.06,6.06-11.5,5.84-1.55-.15-2.86-.88-3.92-2.2-.81-1.32-1.18-2.68-1.1-4.07.32-1.47,1.35-2.75,3.06-3.85,6.36-4.04,12.64-10.9,18.84-20.59-4.49-7.93-7.71-16.74-9.66-26.43M269.41,62.43h31.93v-3.08c-.08-.88-.49-1.69-1.23-2.42-.73-.66-1.59-.99-2.57-.99h-23.73c-1.31.07-2.37.48-3.18,1.21-.82.89-1.22,1.8-1.22,2.75v2.53ZM269.41,78.73h31.93v-6.72h-31.93v6.72ZM279.2,31.38h13.34v-10.68h-13.34v10.68ZM340.62,61.77c.24.66.53,1.36.85,2.09,4.41-12.04,6.61-24.89,6.61-38.54v-2.42h-13.58c-.17,15.12,1.88,28.08,6.12,38.87"></path>
      <path class="cls-1" d="M391.78,1.93c1.94,0,3.83.5,5.67,1.49,1.85.99,3.29,2.41,4.31,4.27,1.03,1.85,1.54,3.78,1.54,5.79s-.51,3.9-1.52,5.73c-1.01,1.84-2.44,3.26-4.27,4.28-1.83,1.01-3.74,1.52-5.74,1.52s-3.91-.5-5.74-1.52c-1.83-1.02-3.25-2.44-4.27-4.28-1.02-1.84-1.53-3.75-1.53-5.73s.52-3.94,1.55-5.79c1.04-1.85,2.48-3.27,4.32-4.27,1.84-.99,3.74-1.49,5.67-1.49M391.78,3.84c-1.62,0-3.2.42-4.73,1.25-1.53.83-2.73,2.02-3.6,3.56-.87,1.54-1.3,3.15-1.3,4.83s.42,3.25,1.28,4.78c.85,1.52,2.04,2.71,3.57,3.57,1.53.85,3.12,1.28,4.78,1.28s3.26-.43,4.79-1.28c1.53-.85,2.72-2.04,3.56-3.57.85-1.52,1.27-3.11,1.27-4.78s-.43-3.28-1.29-4.83c-.86-1.54-2.06-2.73-3.6-3.56-1.54-.83-3.12-1.25-4.73-1.25M386.72,19.85V7.44h4.27c1.46,0,2.51.11,3.17.34.65.23,1.17.63,1.56,1.2.39.57.58,1.18.58,1.82,0,.91-.32,1.69-.97,2.37-.65.67-1.5,1.05-2.58,1.13.44.19.79.4,1.06.66.5.49,1.11,1.31,1.83,2.46l1.51,2.43h-2.44l-1.1-1.96c-.87-1.54-1.57-2.5-2.09-2.89-.37-.29-.9-.43-1.61-.43h-1.18v5.27h-2ZM388.73,12.87h2.43c1.16,0,1.96-.17,2.38-.52.42-.35.63-.81.63-1.38,0-.37-.1-.69-.3-.98-.2-.29-.49-.51-.85-.65-.36-.14-1.04-.21-2.01-.21h-2.28v3.75Z"></path>
    </g>
  </g>
</svg>