<?xml version="1.0" encoding="UTF-8"?>
<svg id="_圖層_2" data-name="圖層_2" xmlns="http://www.w3.org/2000/svg" viewBox="0 0 367.89 124.1">
  <defs>
    
  </defs>
  <g id="_圖層_1-2" data-name="圖層_1">
    <g>
      <path class="cls-1" d="M367.89,80.11c0,28.36-112.26,43.99-183.97,43.99C104.72,124.1,0,108.47,0,80.11s106.88-43.99,183.92-43.99,183.97,14.86,183.97,43.99"></path>
      <polygon class="cls-3" points="83.07 60.69 73.83 60.69 64.04 89.77 57.63 60.69 47.71 60.69 39.07 105.32 48.62 105.32 53.62 78.06 58.94 99.31 58.87 99.53 59 99.53 60.45 105.32 66.47 105.32 75.2 79.55 76.78 105.32 85.57 105.32 83.07 60.69"></polygon>
      <polygon class="cls-3" points="95.84 60.69 87.97 105.38 96.54 105.38 104.39 60.69 95.84 60.69"></polygon>
      <path class="cls-3" d="M134.18,60.69l-9.24,12.9-.41.6c-.47.65-1.23,1.74-2.06,2.97-.26-.8-.58-1.7-1-2.87l-4.92-13.6h-9.72l9.58,25.65-3.35,19.04h8.57l3.21-18.4,19.55-26.29h-10.22Z"></path>
      <path class="cls-3" d="M157.55,60.69h-7.72l-21.98,44.69h9.18l5.88-12.38h10.9l1.73,12.38h9.13l-7.11-44.69ZM146.87,84.68l4.37-9.02c.04-.11.1-.22.14-.32.02.12.04.25.06.38l1.21,8.96h-5.79Z"></path>
      <path class="cls-3" d="M201.89,74.18c.95-5.49-.82-10.27-4.56-12.19-2.43-1.2-4.99-1.3-7.37-1.3h-16.5l-7.87,44.69h8.55l3.17-17.95h3.37c2.67,0,3.57,0,6.4,8.19l3.34,9.76h9.88l-4.85-13.75c-.93-2.68-1.91-4.48-2.91-5.76,5.07-1.9,8.33-5.95,9.35-11.68M180.5,69.23h8.85c1.55,0,2.43.21,3.18.78.6.43,1.1,1.7.79,3.46-.34,1.86-1.54,3.73-2.77,4.35-1.58.73-2.73.73-4.63.73h-7.06l1.65-9.32Z"></path>
      <polygon class="cls-3" points="211.76 60.69 203.87 105.38 212.42 105.38 220.3 60.69 211.76 60.69"></polygon>
      <path class="cls-3" d="M249.38,63.98c-2.23-2.57-5.68-3.92-9.99-3.92-8.03,0-14.33,5.18-15.67,12.88-1.76,9.95,6.43,12.36,10.34,13.52,6.99,2.15,7.81,2.77,7.34,5.46-.69,3.86-4.35,5.23-7.54,5.23-1.2,0-5.2-.26-6.06-3.7-.23-.87-.27-2.01-.11-3.4l.26-2.51-8.38.95-.22,1.83c-.14,1.1-.38,2.96,0,5.3,1.19,6.9,5.84,10.41,13.86,10.41s15.04-5.68,16.49-13.8c1.87-10.7-6.69-13.14-12.36-14.78-5.84-1.65-5.7-2.49-5.4-4.15.7-3.95,4.98-4.38,6.79-4.38s3.19.4,3.92,1.2c.98,1.09.93,2.98.8,4.32l-.23,2.43,8.34-.75.24-1.58c.64-4.34-.2-8-2.41-10.56"></path>
      <path class="cls-3" d="M277.44,60.69h-7.75l-21.97,44.69h9.2l5.86-12.38h10.9l1.75,12.38h9.13l-7.11-44.69ZM266.73,84.68l4.39-9.02c.04-.1.1-.21.14-.3.02.11.04.24.06.36l1.2,8.96h-5.78Z"></path>
      <polygon class="cls-3" points="316.5 60.69 312.08 85.78 302.04 60.69 294.41 60.69 287.51 105.38 295.33 105.38 299.78 78.1 311.82 105.38 318.65 105.38 324.72 60.69 316.5 60.69"></polygon>
      <path class="cls-2" d="M63.21,0c-16.11,0-29.2,13.1-29.2,29.19s13.09,29.22,29.2,29.22,29.21-13.09,29.21-29.22S79.32,0,63.21,0"></path>
      <path class="cls-1" d="M63.21,0c-16.11,0-29.2,13.1-29.2,29.19s13.09,29.22,29.2,29.22,29.21-13.09,29.21-29.22S79.32,0,63.21,0M63.21,56.86c-15.25,0-27.64-12.41-27.64-27.67,0-14.37,11.09-26.11,25.15-27.38v4.19c-11.76,1.26-20.95,11.13-20.95,23.19,0,11.36,8.54,21.82,20.48,22.9v-1.56c-11.08-1.08-18.93-10.9-18.93-21.34,0-12.05,9.83-21.9,21.91-21.9s21.37,9.86,21.37,21.9-8.86,20.07-19.37,21.48v1.55c11.67-1.41,20.9-10.71,20.9-22.81s-9.39-22.98-21.81-23.58V1.66c14.73.62,26.55,12.66,26.55,27.53s-12.39,27.67-27.65,27.67"></path>
      <path class="cls-1" d="M64.55,31.13v-4.84c1.76.02,16.31.12,16.31.12l-.21-.98c0-.1-3.06-14.11-17.44-14.11s-17.44,14.1-17.48,14.29l-.2.92s13.9-.08,15.29-.08v4.59c-1.38,0-15.36.08-15.36.08l.13.93c.02.14,2.57,14.96,17.62,14.96s17.59-14.8,17.61-14.94l.11-.88s-14.62-.02-16.38-.07M47.51,24.76c.61-2.3,3.93-11.86,15.7-11.86s14.94,9.47,15.63,11.9c-1.85,0-29.28-.05-31.33-.05M63.21,45.48c-11.85,0-15-9.73-15.7-12.73,1.68-.02,29.86,0,31.56.02-.71,3.01-3.94,12.71-15.86,12.71"></path>
      <path class="cls-1" d="M308.67,26.94c1.41,0,2.71.35,3.9,1.05,1.2.71,2.14,1.66,2.83,2.87.69,1.21,1.03,2.51,1.03,3.89s-.34,2.67-1.04,3.86c-.7,1.19-1.65,2.14-2.86,2.84-1.21.7-2.5,1.05-3.88,1.05s-2.66-.36-3.86-1.06c-1.21-.71-2.16-1.66-2.85-2.86-.7-1.2-1.04-2.5-1.04-3.88s.34-2.67,1.05-3.87c.7-1.2,1.67-2.16,2.87-2.84,1.2-.71,2.49-1.05,3.86-1.05M308.7,41.43c1.8,0,3.36-.65,4.69-1.96,1.32-1.3,1.97-2.9,1.97-4.78,0-1.16-.3-2.27-.89-3.31-.6-1.05-1.41-1.87-2.44-2.48-1.02-.61-2.14-.92-3.34-.92-1.85,0-3.43.66-4.74,1.96-1.34,1.3-1.99,2.9-1.99,4.77,0,1.18.29,2.29.91,3.33.6,1.04,1.42,1.86,2.46,2.47,1.04.61,2.15.92,3.37.92M305.43,30.19h3.73c1.12,0,1.93.18,2.43.58.5.38.76,1.04.76,1.95s-.38,1.56-1.11,1.96c.36.16.61.38.77.63.16.24.24.7.24,1.4v1.01c0,.42.11.8.32,1.17l.14.24h-1.58c-.09-.34-.16-.77-.2-1.32l-.08-1.09c-.03-.55-.14-.9-.33-1.07-.19-.16-.67-.25-1.41-.25h-2.25v3.72h-1.42v-8.93ZM306.85,31.46v2.66h2.2c.65,0,1.12-.1,1.42-.29.29-.2.46-.54.46-1.04s-.15-.83-.42-1.03c-.27-.18-.73-.29-1.37-.29h-2.28Z"></path>
    </g>
  </g>
</svg>